{"title":"Tinker Tailor Soldier Spy[2011]BRrip[Ac3-5.1]-=[CaLvIn]=-","uid":7381630,"size":959062717,"categoryP":"video","categoryS":"movies","magnet":"?xt=urn:btih:a968cec743d626520e5943d6d8b23e5631496a53&amp;dn=Tinker+Tailor+Soldier+Spy%5B2011%5DBRrip%5BAc3-5.1%5D-%3D%5BCaLvIn%5D%3D-&amp;tr=udp%3A%2F%2Ftracker.openbittorrent.com%3A80&amp;tr=udp%3A%2F%2Fopen.demonii.com%3A1337&amp;tr=udp%3A%2F%2Ftracker.coppersurfer.tk%3A6969&amp;tr=udp%3A%2F%2Fexodus.desync.com%3A6969","seeders":1,"leechers":0,"uploader":"rhythmtheguru","files":15,"time":1340523000,"description":"General\nComplete name                    : Tinker Tailor Soldier Spy[2011]BRrip[Ac3-5.1]\n                                   -=[CaLvIn]=-\nImdb Link                        : http://www.imdb.com/title/tt1340800/\nFormat                           : AVI\nFormat/Info                      : Audio Video Interleave\nFile size                        : 900 MiB\nDuration                         : 2h 7mn\nOverall bit rate                 : 988 Kbps\nWriting application              : VirtualDubMod 1.5.10.3 | www.virtualdub-fr.org || (build 2550/release)\nWriting library                  : VirtualDubMod build 2550/release\n\nVideo\nID                               : 0\nFormat                           : MPEG-4 Visual\nFormat profile                   : Advanced Simple@L5\nFormat settings, BVOP            : 2\nFormat settings, QPel            : No\nFormat settings, GMC             : No warppoints\nFormat settings, Matrix          : Default (H.263)\nCodec ID                         : XVID\nCodec ID/Hint                    : XviD\nDuration                         : 2h 7mn\nBit rate                         : 786 Kbps\nWidth                            : 720 pixels\nHeight                           : 304 pixels\nDisplay aspect ratio             : 16:9\nFrame rate                       : 23.976 fps\nColor space                      : YUV\nChroma subsampling               : 4:2:0\nBit depth                        : 8 bits\nScan type                        : Progressive\nCompression mode                 : Lossy\nBits/(Pixel*Frame)               : 0.150\nStream size                      : 717 MiB (80%)\nWriting library                  : XviD 1.2.1 (UTC 2008-12-04)\n\nAudio\nID                               : 1\nFormat                           : AC-3\nFormat/Info                      : Audio Coding 3\nMode extension                   : CM (complete main)\nCodec ID                         : 2000\nDuration                         : 2h 7mn\nBit rate mode                    : Constant\nBit rate                         : 192 Kbps\nChannel(s)                       : 6 channels\nChannel positions                : Front: L C R, Side: L R, LFE\nSampling rate                    : 48.0 KHz\nBit depth                        : 16 bits\nCompression mode                 : Lossy\nStream size                      : 175 MiB (19%)\nAlignment                        : Split accross interleaves\nInterleave, duration             : 42 ms (1.00 video frame)\nInterleave, preload duration     : 500 ms\n\n\nScreens\n &lt;a href=&quot;\nhttp://img440.imageshack.us/img440/3487/80593133.png&quot; rel=&quot;nofollow&quot; target=&quot;_NEW&quot;&gt;\nhttp://img440.imageshack.us/img440/3487/80593133.png&lt;/a&gt; &lt;a href=&quot;\nhttp://img209.imageshack.us/img209/5454/29122131.png&quot; rel=&quot;nofollow&quot; target=&quot;_NEW&quot;&gt;\nhttp://img209.imageshack.us/img209/5454/29122131.png&lt;/a&gt; &lt;a href=&quot;\nhttp://img856.imageshack.us/img856/8439/98518684.png&quot; rel=&quot;nofollow&quot; target=&quot;_NEW&quot;&gt;\nhttp://img856.imageshack.us/img856/8439/98518684.png&lt;/a&gt; &lt;a href=&quot;\nhttp://img651.imageshack.us/img651/5378/74324342.png&quot; rel=&quot;nofollow&quot; target=&quot;_NEW&quot;&gt;\nhttp://img651.imageshack.us/img651/5378/74324342.png&lt;/a&gt; &lt;a href=&quot;\nhttp://img832.imageshack.us/img832/8646/45804396.png&quot; rel=&quot;nofollow&quot; target=&quot;_NEW&quot;&gt;\nhttp://img832.imageshack.us/img832/8646/45804396.png&lt;/a&gt; &lt;a href=&quot;\nhttp://img822.imageshack.us/img822/921/24688625.png&quot; rel=&quot;nofollow&quot; target=&quot;_NEW&quot;&gt;\nhttp://img822.imageshack.us/img822/921/24688625.png&lt;/a&gt; &lt;a href=&quot;\nhttp://img4.imageshack.us/img4/7087/81995797.png&quot; rel=&quot;nofollow&quot; target=&quot;_NEW&quot;&gt;\nhttp://img4.imageshack.us/img4/7087/81995797.png&lt;/a&gt; &lt;a href=&quot;\nhttp://img829.imageshack.us/img829/6897/67999365.png&quot; rel=&quot;nofollow&quot; target=&quot;_NEW&quot;&gt;\nhttp://img829.imageshack.us/img829/6897/67999365.png&lt;/a&gt; &lt;a href=&quot;\nhttp://img853.imageshack.us/img853/6731/84356077.png&quot; rel=&quot;nofollow&quot; target=&quot;_NEW&quot;&gt;\nhttp://img853.imageshack.us/img853/6731/84356077.png&lt;/a&gt; &lt;a href=&quot;\nhttp://img855.imageshack.us/img855/6369/31814452.png&quot; rel=&quot;nofollow&quot; target=&quot;_NEW&quot;&gt;\nhttp://img855.imageshack.us/img855/6369/31814452.png&lt;/a&gt;","torrent":{"xt":"urn:btih:a968cec743d626520e5943d6d8b23e5631496a53","amp;dn":"Tinker+Tailor+Soldier+Spy%5B2011%5DBRrip%5BAc3-5.1%5D-%3D%5BCaLvIn%5D%3D-","amp;tr":["udp%3A%2F%2Ftracker.openbittorrent.com%3A80","udp%3A%2F%2Fopen.demonii.com%3A1337","udp%3A%2F%2Ftracker.coppersurfer.tk%3A6969","udp%3A%2F%2Fexodus.desync.com%3A6969"],"infoHash":"a968cec743d626520e5943d6d8b23e5631496a53","infoHashBuffer":{"type":"Buffer","data":[169,104,206,199,67,214,38,82,14,89,67,214,216,178,62,86,49,73,106,83]},"announce":[],"urlList":[]}}